<?xml version="1.0" encoding="UTF-8" standalone="no"?>
<!-- Created with Inkscape (http://www.inkscape.org/) -->

<svg
   width="19.663843mm"
   height="19.663843mm"
   viewBox="0 0 19.663843 19.663843"
   version="1.1"
   id="svg5"
   inkscape:version="1.1.2 (b8e25be833, 2022-02-05)"
   sodipodi:docname="imperial.svg"
   xmlns:inkscape="http://www.inkscape.org/namespaces/inkscape"
   xmlns:sodipodi="http://sodipodi.sourceforge.net/DTD/sodipodi-0.dtd"
   xmlns="http://www.w3.org/2000/svg"
   xmlns:svg="http://www.w3.org/2000/svg">
  <sodipodi:namedview
     id="namedview7"
     pagecolor="#505050"
     bordercolor="#ffffff"
     borderopacity="1"
     inkscape:pageshadow="0"
     inkscape:pageopacity="0"
     inkscape:pagecheckerboard="1"
     inkscape:document-units="mm"
     showgrid="false"
     inkscape:zoom="8.7988368"
     inkscape:cx="11.421964"
     inkscape:cy="47.960885"
     inkscape:window-width="2560"
     inkscape:window-height="1369"
     inkscape:window-x="-8"
     inkscape:window-y="-8"
     inkscape:window-maximized="1"
     inkscape:current-layer="g848" />
  <defs
     id="defs2" />
  <g
     inkscape:label="Layer 1"
     inkscape:groupmode="layer"
     id="layer1"
     transform="translate(-83.65652,-119.74084)">
    <g
       id="g848"
       transform="matrix(0.26458333,0,0,0.26458333,84.750215,118.09042)">
      <circle
         style="fill:#000000;fill-opacity:0;stroke:#000000;stroke-width:3.40157;stroke-linecap:round;stroke-linejoin:round;stroke-opacity:1"
         id="path1762"
         cx="33.026367"
         cy="43.397812"
         r="35.459232" />
      <text
         xml:space="preserve"
         style="font-style:normal;font-weight:normal;font-size:13.8868px;line-height:1.25;font-family:sans-serif;fill:#000000;fill-opacity:1;stroke:none;stroke-width:0.347172"
         x="10.243935"
         y="27.324316"
         id="text4250-9"><tspan
           sodipodi:role="line"
           id="tspan4248-7"
           x="10.243935"
           y="27.324316"
           style="stroke-width:0.347172">pound</tspan></text>
      <text
         xml:space="preserve"
         style="font-style:normal;font-weight:normal;font-size:12.1224px;line-height:1.25;font-family:sans-serif;fill:#000000;fill-opacity:1;stroke:none;stroke-width:0.303061"
         x="16.605631"
         y="67.874519"
         id="text4250-9-0"><tspan
           sodipodi:role="line"
           id="tspan4248-7-1"
           x="16.605631"
           y="67.874519"
           style="stroke-width:0.303061">inches</tspan></text>
      <g
         style="fill:#000000"
         id="g9746"
         transform="matrix(0.07622854,0.03393914,-0.03393914,0.07622854,19.528379,16.588135)">
        <g
           id="g9673">
	<g
   id="g9671">
		<path
   d="m 118,377.8 -64,-64 c -6.4,-6.4 -16,-6.4 -22.4,0 -6.4,6.4 -6.4,16 0,22.4 l 64,64 c 3.2,3.2 6.4,4.8 11.2,4.8 4.8,0 8,-1.6 11.2,-4.8 6.4,-6.4 6.4,-16 0,-22.4 z"
   id="path9669" />

	</g>

</g>
        <g
           id="g9679">
	<g
   id="g9677">
		<path
   d="m 486,107.4 -96,-96 C 375.6,-3 350,-3 335.6,11.4 L 10.8,334.6 c -14.4,16 -14.4,40 0,54.4 l 96,96 c 8,8 17.6,11.2 27.2,11.2 9.6,0 19.2,-3.2 25.6,-11.2 L 486,161.8 c 14.4,-16 14.4,-40 0,-54.4 z m -24,30.4 -324.8,324.8 c -3.2,3.2 -4.8,3.2 -8,0 l -96,-96 c -1.6,-1.6 -1.6,-6.4 0,-8 L 356.4,33.8 c 1.6,-1.6 3.2,-1.6 4.8,-1.6 1.6,0 3.2,0 4.8,1.6 l 96,96 c 1.6,1.6 1.6,6.4 0,8 z"
   id="path9675" />

	</g>

</g>
        <g
           id="g9685">
	<g
   id="g9683">
		<path
   d="m 258.8,237 -64,-64 c -6.4,-6.4 -16,-6.4 -22.4,0 -6.4,6.4 -6.4,16 0,22.4 l 64,64 c 3.2,3.2 6.4,4.8 11.2,4.8 4.8,0 8,-1.6 11.2,-4.8 6.4,-6.4 6.4,-16 0,-22.4 z"
   id="path9681" />

	</g>

</g>
        <g
           id="g9691">
	<g
   id="g9689">
		<path
   d="m 186.8,259.4 -40,-38.4 c -6.4,-6.4 -16,-6.4 -22.4,0 -6.4,6.4 -6.4,16 0,22.4 l 40,38.4 c 3.2,3.2 6.4,4.8 11.2,4.8 4.8,0 9.6,-1.6 11.2,-4.8 6.4,-6.4 6.4,-16 0,-22.4 z"
   id="path9687" />

	</g>

</g>
        <g
           id="g9697">
	<g
   id="g9695">
		<path
   d="M 140.4,305.8 102,267.4 c -6.4,-6.4 -16,-6.4 -22.4,0 -6.4,6.4 -6.4,16 0,22.4 l 38.4,38.4 c 3.2,3.2 6.4,4.8 11.2,4.8 4.8,0 8,-1.6 11.2,-4.8 6.4,-6.4 6.4,-16 0,-22.4 z"
   id="path9693" />

	</g>

</g>
        <g
           id="g9703">
	<g
   id="g9701">
		<path
   d="M 327.6,118.6 289.2,80.2 c -6.4,-6.4 -16,-6.4 -22.4,0 -6.4,6.4 -6.4,16 0,22.4 l 38.4,38.4 c 3.2,3.2 6.4,4.8 11.2,4.8 4.8,0 9.6,-1.6 11.2,-4.8 6.4,-6.4 6.4,-16 0,-22.4 z"
   id="path9699" />

	</g>

</g>
        <g
           id="g9709">
	<g
   id="g9707">
		<path
   d="m 281.2,165 -38.4,-38.4 c -6.4,-6.4 -16,-6.4 -22.4,0 -6.4,6.4 -6.4,16 0,22.4 l 38.4,38.4 c 3.2,3.2 6.4,4.8 11.2,4.8 4.8,0 8,-1.6 11.2,-4.8 6.4,-6.4 6.4,-16 0,-22.4 z"
   id="path9705" />

	</g>

</g>
        <g
           id="g9715">
	<g
   id="g9713">
		<path
   d="m 399.6,96.2 -64,-64 c -6.4,-6.4 -16,-6.4 -22.4,0 -6.4,6.4 -6.4,16 0,22.4 l 64,64 c 3.2,3.2 6.4,4.8 11.2,4.8 4.8,0 8,-1.6 11.2,-4.8 6.4,-6.4 6.4,-16 0,-22.4 z"
   id="path9711" />

	</g>

</g>
      </g>
    </g>
  </g>
</svg>
