<?xml version="1.0" encoding="UTF-8"?>
<svg width="19.664mm" height="19.664mm" version="1.1" viewBox="0 0 19.664 19.664" xmlns="http://www.w3.org/2000/svg">
 <g transform="translate(-83.657 -119.74)">
  <g transform="matrix(.26458 0 0 .26458 84.75 118.09)">
   <circle cx="33.026" cy="43.398" r="35.459" fill-opacity="0" stroke="#000" stroke-linecap="round" stroke-linejoin="round" stroke-width="3.4016"/>
   <text x="18.313183" y="27.66527" fill="#000000" font-family="sans-serif" font-size="13.887px" stroke-width=".34717" style="line-height:1.25" xml:space="preserve"><tspan x="18.313183" y="27.66527" stroke-width=".34717">kg</tspan></text>
   <text x="26.378286" y="66.942039" fill="#000000" font-family="sans-serif" font-size="13.887px" stroke-width=".34717" style="line-height:1.25" xml:space="preserve"><tspan x="26.378286" y="66.942039" stroke-width=".34717">cm</tspan></text>
   <g transform="matrix(.076229 .033939 -.033939 .076229 19.528 16.588)">
    <path d="m118 377.8-64-64c-6.4-6.4-16-6.4-22.4 0s-6.4 16 0 22.4l64 64c3.2 3.2 6.4 4.8 11.2 4.8s8-1.6 11.2-4.8c6.4-6.4 6.4-16 0-22.4z"/>
    <path d="m486 107.4-96-96c-14.4-14.4-40-14.4-54.4 0l-324.8 323.2c-14.4 16-14.4 40 0 54.4l96 96c8 8 17.6 11.2 27.2 11.2s19.2-3.2 25.6-11.2l326.4-323.2c14.4-16 14.4-40 0-54.4zm-24 30.4-324.8 324.8c-3.2 3.2-4.8 3.2-8 0l-96-96c-1.6-1.6-1.6-6.4 0-8l323.2-324.8c1.6-1.6 3.2-1.6 4.8-1.6s3.2 0 4.8 1.6l96 96c1.6 1.6 1.6 6.4 0 8z"/>
    <path d="m258.8 237-64-64c-6.4-6.4-16-6.4-22.4 0s-6.4 16 0 22.4l64 64c3.2 3.2 6.4 4.8 11.2 4.8s8-1.6 11.2-4.8c6.4-6.4 6.4-16 0-22.4z"/>
    <path d="m186.8 259.4-40-38.4c-6.4-6.4-16-6.4-22.4 0s-6.4 16 0 22.4l40 38.4c3.2 3.2 6.4 4.8 11.2 4.8s9.6-1.6 11.2-4.8c6.4-6.4 6.4-16 0-22.4z"/>
    <path d="m140.4 305.8-38.4-38.4c-6.4-6.4-16-6.4-22.4 0s-6.4 16 0 22.4l38.4 38.4c3.2 3.2 6.4 4.8 11.2 4.8s8-1.6 11.2-4.8c6.4-6.4 6.4-16 0-22.4z"/>
    <path d="m327.6 118.6-38.4-38.4c-6.4-6.4-16-6.4-22.4 0s-6.4 16 0 22.4l38.4 38.4c3.2 3.2 6.4 4.8 11.2 4.8s9.6-1.6 11.2-4.8c6.4-6.4 6.4-16 0-22.4z"/>
    <path d="m281.2 165-38.4-38.4c-6.4-6.4-16-6.4-22.4 0s-6.4 16 0 22.4l38.4 38.4c3.2 3.2 6.4 4.8 11.2 4.8s8-1.6 11.2-4.8c6.4-6.4 6.4-16 0-22.4z"/>
    <path d="m399.6 96.2-64-64c-6.4-6.4-16-6.4-22.4 0s-6.4 16 0 22.4l64 64c3.2 3.2 6.4 4.8 11.2 4.8s8-1.6 11.2-4.8c6.4-6.4 6.4-16 0-22.4z"/>
   </g>
  </g>
 </g>
</svg>
